<svg xmlns="http://www.w3.org/2000/svg" viewBox="0 0 64 64">
  <!-- Goat face for light browser themes: dark brown face on a light tab -->
  <g fill="none" stroke="#b8862e" stroke-width="5" stroke-linecap="round">
    <path d="M25 17C22 9 17 5 10 4"/>
    <path d="M39 17C42 9 47 5 54 4"/>
  </g>
  <path fill="#4a2a1b" d="M22 21C15 18 6 21 2 29c7 4 15 3 21-1zM42 21c7-3 16 0 20 8-7 4-15 3-21-1z"/>
  <path fill="#5a3423" d="M32 13c-9 0-13 4-13 10l2 17c1 10 6 16 11 16s10-6 11-16l2-17c0-6-4-10-13-10z"/>
  <path fill="#4a2a1b" d="M27 52l5 11 5-11z"/>
  <path fill="#eadfc8" d="M32 22c-2 0-3 2-3 5v12c0 2 1 3 3 3s3-1 3-3V27c0-3-1-5-3-5z"/>
  <g fill="#f4ecd9">
    <ellipse cx="25.5" cy="30" rx="3" ry="2.6"/>
    <ellipse cx="38.5" cy="30" rx="3" ry="2.6"/>
  </g>
  <g fill="#2a1810">
    <rect x="23.5" y="29.1" width="4" height="1.8" rx=".9"/>
    <rect x="36.5" y="29.1" width="4" height="1.8" rx=".9"/>
    <ellipse cx="29.6" cy="48" rx="1.3" ry="1.6"/>
    <ellipse cx="34.4" cy="48" rx="1.3" ry="1.6"/>
  </g>
</svg>
